<?xml version="1.0" encoding="utf-8"?>
<!-- Generator: Adobe Illustrator 16.0.0, SVG Export Plug-In . SVG Version: 6.00 Build 0)  -->
<!DOCTYPE svg PUBLIC "-//W3C//DTD SVG 1.1//EN" "http://www.w3.org/Graphics/SVG/1.1/DTD/svg11.dtd">
<svg version="1.1" id="Layer_1" xmlns="http://www.w3.org/2000/svg" xmlns:xlink="http://www.w3.org/1999/xlink" x="0px" y="0px"
	 width="72px" height="53.039px" viewBox="0 0 72 53.039" enable-background="new 0 0 72 53.039" xml:space="preserve">
<g>
	<path fill-rule="evenodd" clip-rule="evenodd" fill="#FFFFFF" d="M19.225,25.438c0-4.402,1.6-8.428,4.232-11.495l-2.271-2.333
		c-3.211,3.667-5.167,8.516-5.167,13.827c0,6.019,2.515,11.446,6.521,15.23l2.268-2.33C21.381,35.153,19.225,30.549,19.225,25.438z"
		/>
	<path fill-rule="evenodd" clip-rule="evenodd" fill="#FFFFFF" d="M12.527,2.712l-2.277-2.34C3.734,7.283,0.151,16.361,0.151,26.006
		c0,9.845,3.73,19.101,10.504,26.062c0.132,0.136,0.267,0.269,0.4,0.401l2.278-2.341c-6.148-6.106-9.977-14.663-9.977-24.123
		C3.357,16.967,6.854,8.753,12.527,2.712z"/>
	<path fill-rule="evenodd" clip-rule="evenodd" fill="#FFFFFF" d="M11.01,25.285c0-6.69,2.488-12.795,6.561-17.389l-2.267-2.329
		c-4.653,5.192-7.5,12.12-7.5,19.718c0,8.387,3.466,15.955,9.003,21.276l2.267-2.33C14.118,39.508,11.01,32.763,11.01,25.285z"/>
	<path fill-rule="evenodd" clip-rule="evenodd" fill="#FFFFFF" d="M61.771,0.355l-2.277,2.341c5.683,6.042,9.186,14.263,9.186,23.31
		c0,9.468-3.836,18.032-9.993,24.139l2.278,2.341c0.139-0.139,0.278-0.277,0.416-0.418c6.774-6.961,10.505-16.217,10.505-26.062
		C71.885,16.353,68.297,7.269,61.771,0.355z"/>
	<path fill-rule="evenodd" clip-rule="evenodd" fill="#FFFFFF" d="M56.86,5.402l-2.268,2.33c4.161,4.613,6.711,10.783,6.711,17.553
		c0,7.559-3.174,14.37-8.225,19.1l2.268,2.329c5.629-5.327,9.163-12.961,9.163-21.429C64.51,17.606,61.602,10.612,56.86,5.402z"/>
	<path fill-rule="evenodd" clip-rule="evenodd" fill="#FFFFFF" d="M50.979,11.444l-2.268,2.332c2.72,3.086,4.378,7.179,4.378,11.662
		c0,5.192-2.226,9.859-5.747,13.05l2.27,2.332c4.101-3.792,6.684-9.282,6.684-15.382C56.295,20.046,54.277,15.132,50.979,11.444z"/>
	<path fill-rule="evenodd" clip-rule="evenodd" fill="#FFFFFF" d="M48.791,26.357c0.006-0.136,0.021-0.27,0.021-0.406
		c0-0.022-0.004-0.043-0.004-0.066c0-0.031,0.004-0.062,0.004-0.093c0-6.815-5.599-12.339-12.499-12.339
		s-12.499,5.524-12.499,12.339c0,0.031,0.003,0.062,0.003,0.093c0,0.023-0.003,0.044-0.003,0.066c0,0.136,0.017,0.27,0.021,0.404
		c0.006,0.138,0.01,0.275,0.02,0.413c0.3,4.621,3.103,8.549,7.074,10.45l5.384,8.923l5.384-8.923
		c3.971-1.901,6.775-5.83,7.073-10.452C48.782,26.63,48.785,26.494,48.791,26.357z M36.18,29.294c-1.846,0-3.34-1.496-3.34-3.341
		s1.495-3.341,3.34-3.341c1.845,0,3.342,1.496,3.342,3.341S38.024,29.294,36.18,29.294z"/>
</g>
</svg>
